<mxfile host="app.diagrams.net" agent="Mozilla/5.0 (Windows NT 10.0; Win64; x64) AppleWebKit/537.36 (KHTML, like Gecko) Chrome/131.0.0.0 Safari/537.36" version="25.0.3" pages="2">
  <diagram name="第 1 页" id="RuWVTnvJswS_8fom_qcK">
    <mxGraphModel dx="257" dy="362" grid="0" gridSize="10" guides="1" tooltips="1" connect="1" arrows="1" fold="1" page="1" pageScale="1" pageWidth="827" pageHeight="1169" math="0" shadow="0">
      <root>
        <mxCell id="0" />
        <mxCell id="1" parent="0" />
        <mxCell id="Duh1ywLqSutDNn5pNTxh-10" style="edgeStyle=orthogonalEdgeStyle;rounded=0;orthogonalLoop=1;jettySize=auto;html=1;exitX=1;exitY=0.5;exitDx=0;exitDy=0;entryX=0;entryY=0.5;entryDx=0;entryDy=0;strokeColor=#457B9D;fontColor=#1D3557;fillColor=#A8DADC;strokeWidth=2;" edge="1" parent="1" source="Duh1ywLqSutDNn5pNTxh-1" target="Duh1ywLqSutDNn5pNTxh-8">
          <mxGeometry relative="1" as="geometry" />
        </mxCell>
        <mxCell id="Duh1ywLqSutDNn5pNTxh-1" value="HyperPrism.trainer(&lt;div&gt;&amp;nbsp; &amp;nbsp; torchtitan_config_path,&amp;nbsp; &amp;nbsp; &amp;nbsp; &amp;nbsp; hyperprism_config_path&amp;nbsp; &amp;nbsp; &amp;nbsp; | None&lt;/div&gt;&lt;div&gt;)&lt;/div&gt;" style="rounded=1;whiteSpace=wrap;html=1;align=left;labelBackgroundColor=none;fillColor=#A8DADC;strokeColor=#457B9D;fontColor=#1D3557;strokeWidth=2;" vertex="1" parent="1">
          <mxGeometry x="162" y="56.5" width="147" height="79" as="geometry" />
        </mxCell>
        <mxCell id="Duh1ywLqSutDNn5pNTxh-6" value="" style="ellipse;html=1;shape=startState;labelBackgroundColor=none;fillColor=#A8DADC;strokeColor=#457B9D;fontColor=#1D3557;strokeWidth=2;" vertex="1" parent="1">
          <mxGeometry x="76" y="81" width="30" height="30" as="geometry" />
        </mxCell>
        <mxCell id="Duh1ywLqSutDNn5pNTxh-7" value="" style="edgeStyle=orthogonalEdgeStyle;html=1;verticalAlign=bottom;endArrow=open;endSize=8;rounded=0;fontColor=default;labelBackgroundColor=none;strokeColor=#457B9D;entryX=0;entryY=0.5;entryDx=0;entryDy=0;strokeWidth=2;exitX=1;exitY=0.5;exitDx=0;exitDy=0;" edge="1" source="Duh1ywLqSutDNn5pNTxh-6" parent="1" target="Duh1ywLqSutDNn5pNTxh-1">
          <mxGeometry relative="1" as="geometry">
            <mxPoint x="91" y="164" as="targetPoint" />
          </mxGeometry>
        </mxCell>
        <mxCell id="Duh1ywLqSutDNn5pNTxh-25" style="edgeStyle=orthogonalEdgeStyle;rounded=0;orthogonalLoop=1;jettySize=auto;html=1;strokeColor=#457B9D;fontColor=#1D3557;fillColor=#A8DADC;strokeWidth=2;dashed=1;" edge="1" parent="1" source="Duh1ywLqSutDNn5pNTxh-8">
          <mxGeometry relative="1" as="geometry">
            <mxPoint x="438.5" y="199.07696767953723" as="targetPoint" />
          </mxGeometry>
        </mxCell>
        <mxCell id="Duh1ywLqSutDNn5pNTxh-8" value="load_config(...)" style="rounded=1;whiteSpace=wrap;html=1;align=center;labelBackgroundColor=none;fillColor=#A8DADC;strokeColor=#457B9D;fontColor=#1D3557;strokeWidth=2;" vertex="1" parent="1">
          <mxGeometry x="365" y="56.5" width="147" height="79" as="geometry" />
        </mxCell>
        <mxCell id="Duh1ywLqSutDNn5pNTxh-16" value="" style="edgeStyle=orthogonalEdgeStyle;rounded=0;orthogonalLoop=1;jettySize=auto;html=1;strokeColor=#457B9D;fontColor=#1D3557;fillColor=#A8DADC;strokeWidth=2;" edge="1" parent="1" source="Duh1ywLqSutDNn5pNTxh-11" target="Duh1ywLqSutDNn5pNTxh-15">
          <mxGeometry relative="1" as="geometry" />
        </mxCell>
        <mxCell id="Duh1ywLqSutDNn5pNTxh-11" value="toml.load(&lt;div&gt;&amp;nbsp; &amp;nbsp; torchtitan_config_path&lt;/div&gt;&lt;div&gt;)&lt;/div&gt;" style="rounded=1;whiteSpace=wrap;html=1;align=left;labelBackgroundColor=none;fillColor=#A8DADC;strokeColor=#457B9D;fontColor=#1D3557;strokeWidth=2;" vertex="1" parent="1">
          <mxGeometry x="368" y="218" width="147" height="79" as="geometry" />
        </mxCell>
        <mxCell id="Duh1ywLqSutDNn5pNTxh-24" style="edgeStyle=orthogonalEdgeStyle;rounded=0;orthogonalLoop=1;jettySize=auto;html=1;entryX=0.5;entryY=0;entryDx=0;entryDy=0;strokeColor=#457B9D;fontColor=#1D3557;fillColor=#A8DADC;strokeWidth=2;" edge="1" parent="1" source="Duh1ywLqSutDNn5pNTxh-15" target="Duh1ywLqSutDNn5pNTxh-23">
          <mxGeometry relative="1" as="geometry" />
        </mxCell>
        <mxCell id="Duh1ywLqSutDNn5pNTxh-15" value="toml.load(&lt;div&gt;&amp;nbsp; &amp;nbsp; torchtitan_config_path&lt;/div&gt;&lt;div&gt;)&lt;/div&gt;" style="rounded=1;whiteSpace=wrap;html=1;align=left;labelBackgroundColor=none;fillColor=#A8DADC;strokeColor=#457B9D;fontColor=#1D3557;strokeWidth=2;" vertex="1" parent="1">
          <mxGeometry x="368" y="354" width="147" height="79" as="geometry" />
        </mxCell>
        <mxCell id="Duh1ywLqSutDNn5pNTxh-18" value="&lt;b&gt;True&lt;/b&gt;" style="text;html=1;align=left;verticalAlign=middle;whiteSpace=wrap;rounded=0;fontColor=#1D3557;" vertex="1" parent="1">
          <mxGeometry x="522" y="603" width="60" height="30" as="geometry" />
        </mxCell>
        <mxCell id="Duh1ywLqSutDNn5pNTxh-23" value="hyper_prism_config_path" style="rhombus;whiteSpace=wrap;html=1;strokeColor=#457B9D;fontColor=#1D3557;fillColor=#A8DADC;strokeWidth=2;" vertex="1" parent="1">
          <mxGeometry x="361" y="495" width="161" height="81" as="geometry" />
        </mxCell>
        <mxCell id="Duh1ywLqSutDNn5pNTxh-26" value="hyper_prism_config_path" style="rhombus;whiteSpace=wrap;html=1;strokeColor=#457B9D;fontColor=#1D3557;fillColor=#A8DADC;strokeWidth=2;" vertex="1" parent="1">
          <mxGeometry x="358" y="627" width="161" height="81" as="geometry" />
        </mxCell>
      </root>
    </mxGraphModel>
  </diagram>
  <diagram id="slAONmnLkTDGVx0_Kn04" name="第 2 页">
    <mxGraphModel dx="1511" dy="827" grid="0" gridSize="10" guides="1" tooltips="1" connect="1" arrows="1" fold="1" page="1" pageScale="1" pageWidth="827" pageHeight="1169" math="0" shadow="0">
      <root>
        <mxCell id="0" />
        <mxCell id="1" parent="0" />
        <mxCell id="Ym5cuZoMk363GAr630aw-3" value="HyperPrism" style="swimlane;fontStyle=0;childLayout=stackLayout;horizontal=1;startSize=30;horizontalStack=0;resizeParent=1;resizeParentMax=0;resizeLast=0;collapsible=1;marginBottom=0;whiteSpace=wrap;html=1;fillColor=#f8cecc;strokeColor=#b85450;" vertex="1" parent="1">
          <mxGeometry x="204" y="27" width="140" height="120" as="geometry">
            <mxRectangle x="100" y="287" width="135" height="30" as="alternateBounds" />
          </mxGeometry>
        </mxCell>
        <mxCell id="Ym5cuZoMk363GAr630aw-4" value="__init__" style="text;strokeColor=none;fillColor=none;align=center;verticalAlign=middle;spacingLeft=4;spacingRight=4;overflow=hidden;points=[[0,0.5],[1,0.5]];portConstraint=eastwest;rotatable=0;whiteSpace=wrap;html=1;" vertex="1" parent="Ym5cuZoMk363GAr630aw-3">
          <mxGeometry y="30" width="140" height="30" as="geometry" />
        </mxCell>
        <mxCell id="Ym5cuZoMk363GAr630aw-5" value="__train__" style="text;strokeColor=none;fillColor=none;align=center;verticalAlign=middle;spacingLeft=4;spacingRight=4;overflow=hidden;points=[[0,0.5],[1,0.5]];portConstraint=eastwest;rotatable=0;whiteSpace=wrap;html=1;" vertex="1" parent="Ym5cuZoMk363GAr630aw-3">
          <mxGeometry y="60" width="140" height="30" as="geometry" />
        </mxCell>
        <mxCell id="Ym5cuZoMk363GAr630aw-6" value="trainer (classmethod)" style="text;strokeColor=#b85450;fillColor=#f8cecc;align=center;verticalAlign=middle;spacingLeft=4;spacingRight=4;overflow=hidden;points=[[0,0.5],[1,0.5]];portConstraint=eastwest;rotatable=0;whiteSpace=wrap;html=1;" vertex="1" parent="Ym5cuZoMk363GAr630aw-3">
          <mxGeometry y="90" width="140" height="30" as="geometry" />
        </mxCell>
        <mxCell id="Ym5cuZoMk363GAr630aw-34" style="edgeStyle=orthogonalEdgeStyle;curved=1;rounded=0;orthogonalLoop=1;jettySize=auto;html=1;exitX=1;exitY=0.5;exitDx=0;exitDy=0;entryX=0.471;entryY=0.97;entryDx=0;entryDy=0;entryPerimeter=0;" edge="1" parent="Ym5cuZoMk363GAr630aw-3" source="Ym5cuZoMk363GAr630aw-6" target="Ym5cuZoMk363GAr630aw-6">
          <mxGeometry relative="1" as="geometry">
            <Array as="points">
              <mxPoint x="149" y="105" />
              <mxPoint x="149" y="182" />
              <mxPoint x="66" y="182" />
            </Array>
          </mxGeometry>
        </mxCell>
        <mxCell id="Ym5cuZoMk363GAr630aw-7" value="DisEnvInit" style="swimlane;fontStyle=0;childLayout=stackLayout;horizontal=1;startSize=30;horizontalStack=0;resizeParent=1;resizeParentMax=0;resizeLast=0;collapsible=1;marginBottom=0;whiteSpace=wrap;html=1;" vertex="1" parent="1">
          <mxGeometry x="399" y="209" width="140" height="150" as="geometry">
            <mxRectangle x="306" y="287" width="202" height="30" as="alternateBounds" />
          </mxGeometry>
        </mxCell>
        <mxCell id="Ym5cuZoMk363GAr630aw-8" value="__init__" style="text;strokeColor=none;fillColor=none;align=center;verticalAlign=middle;spacingLeft=4;spacingRight=4;overflow=hidden;points=[[0,0.5],[1,0.5]];portConstraint=eastwest;rotatable=0;whiteSpace=wrap;html=1;" vertex="1" parent="Ym5cuZoMk363GAr630aw-7">
          <mxGeometry y="30" width="140" height="30" as="geometry" />
        </mxCell>
        <mxCell id="Ym5cuZoMk363GAr630aw-9" value="__init_dataloader__" style="text;strokeColor=none;fillColor=none;align=center;verticalAlign=middle;spacingLeft=4;spacingRight=4;overflow=hidden;points=[[0,0.5],[1,0.5]];portConstraint=eastwest;rotatable=0;whiteSpace=wrap;html=1;" vertex="1" parent="Ym5cuZoMk363GAr630aw-7">
          <mxGeometry y="60" width="140" height="30" as="geometry" />
        </mxCell>
        <mxCell id="Ym5cuZoMk363GAr630aw-10" value="__init_model__" style="text;strokeColor=none;fillColor=none;align=center;verticalAlign=middle;spacingLeft=4;spacingRight=4;overflow=hidden;points=[[0,0.5],[1,0.5]];portConstraint=eastwest;rotatable=0;whiteSpace=wrap;html=1;" vertex="1" parent="Ym5cuZoMk363GAr630aw-7">
          <mxGeometry y="90" width="140" height="30" as="geometry" />
        </mxCell>
        <mxCell id="Ym5cuZoMk363GAr630aw-20" value="setup_distributed_env (classmethod)" style="text;strokeColor=none;fillColor=none;align=center;verticalAlign=middle;spacingLeft=4;spacingRight=4;overflow=hidden;points=[[0,0.5],[1,0.5]];portConstraint=eastwest;rotatable=0;whiteSpace=wrap;html=1;" vertex="1" parent="Ym5cuZoMk363GAr630aw-7">
          <mxGeometry y="120" width="140" height="30" as="geometry" />
        </mxCell>
        <mxCell id="Ym5cuZoMk363GAr630aw-31" style="edgeStyle=orthogonalEdgeStyle;curved=1;rounded=0;orthogonalLoop=1;jettySize=auto;html=1;exitX=1;exitY=0.5;exitDx=0;exitDy=0;entryX=0.471;entryY=0.99;entryDx=0;entryDy=0;entryPerimeter=0;" edge="1" parent="Ym5cuZoMk363GAr630aw-7" source="Ym5cuZoMk363GAr630aw-20" target="Ym5cuZoMk363GAr630aw-20">
          <mxGeometry relative="1" as="geometry">
            <Array as="points">
              <mxPoint x="174" y="135" />
              <mxPoint x="174" y="208" />
              <mxPoint x="66" y="208" />
            </Array>
          </mxGeometry>
        </mxCell>
        <mxCell id="Ym5cuZoMk363GAr630aw-23" value="ParallelDims" style="swimlane;fontStyle=0;childLayout=stackLayout;horizontal=1;startSize=30;horizontalStack=0;resizeParent=1;resizeParentMax=0;resizeLast=0;collapsible=1;marginBottom=0;whiteSpace=wrap;html=1;" vertex="1" parent="1">
          <mxGeometry x="653" y="216" width="140" height="120" as="geometry" />
        </mxCell>
        <mxCell id="Ym5cuZoMk363GAr630aw-24" value="__init__" style="text;strokeColor=none;fillColor=none;align=center;verticalAlign=middle;spacingLeft=4;spacingRight=4;overflow=hidden;points=[[0,0.5],[1,0.5]];portConstraint=eastwest;rotatable=0;whiteSpace=wrap;html=1;" vertex="1" parent="Ym5cuZoMk363GAr630aw-23">
          <mxGeometry y="30" width="140" height="30" as="geometry" />
        </mxCell>
        <mxCell id="Ym5cuZoMk363GAr630aw-25" value="bulid_mesh" style="text;strokeColor=none;fillColor=none;align=center;verticalAlign=middle;spacingLeft=4;spacingRight=4;overflow=hidden;points=[[0,0.5],[1,0.5]];portConstraint=eastwest;rotatable=0;whiteSpace=wrap;html=1;" vertex="1" parent="Ym5cuZoMk363GAr630aw-23">
          <mxGeometry y="60" width="140" height="30" as="geometry" />
        </mxCell>
        <mxCell id="Ym5cuZoMk363GAr630aw-26" value="function (property)" style="text;strokeColor=none;fillColor=none;align=center;verticalAlign=middle;spacingLeft=4;spacingRight=4;overflow=hidden;points=[[0,0.5],[1,0.5]];portConstraint=eastwest;rotatable=0;whiteSpace=wrap;html=1;" vertex="1" parent="Ym5cuZoMk363GAr630aw-23">
          <mxGeometry y="90" width="140" height="30" as="geometry" />
        </mxCell>
        <mxCell id="Ym5cuZoMk363GAr630aw-36" value="HyperPrismTrainer" style="swimlane;fontStyle=0;childLayout=stackLayout;horizontal=1;startSize=30;horizontalStack=0;resizeParent=1;resizeParentMax=0;resizeLast=0;collapsible=1;marginBottom=0;whiteSpace=wrap;html=1;" vertex="1" parent="1">
          <mxGeometry x="81" y="198" width="140" height="330" as="geometry" />
        </mxCell>
        <mxCell id="Ym5cuZoMk363GAr630aw-37" value="__init__" style="text;strokeColor=none;fillColor=none;align=left;verticalAlign=middle;spacingLeft=4;spacingRight=4;overflow=hidden;points=[[0,0.5],[1,0.5]];portConstraint=eastwest;rotatable=0;whiteSpace=wrap;html=1;" vertex="1" parent="Ym5cuZoMk363GAr630aw-36">
          <mxGeometry y="30" width="140" height="30" as="geometry" />
        </mxCell>
        <mxCell id="Ym5cuZoMk363GAr630aw-38" value="__cuda_enable_" style="text;strokeColor=none;fillColor=none;align=left;verticalAlign=middle;spacingLeft=4;spacingRight=4;overflow=hidden;points=[[0,0.5],[1,0.5]];portConstraint=eastwest;rotatable=0;whiteSpace=wrap;html=1;" vertex="1" parent="Ym5cuZoMk363GAr630aw-36">
          <mxGeometry y="60" width="140" height="30" as="geometry" />
        </mxCell>
        <mxCell id="Ym5cuZoMk363GAr630aw-39" value="__local_update__" style="text;strokeColor=none;fillColor=none;align=left;verticalAlign=middle;spacingLeft=4;spacingRight=4;overflow=hidden;points=[[0,0.5],[1,0.5]];portConstraint=eastwest;rotatable=0;whiteSpace=wrap;html=1;" vertex="1" parent="Ym5cuZoMk363GAr630aw-36">
          <mxGeometry y="90" width="140" height="30" as="geometry" />
        </mxCell>
        <mxCell id="Ym5cuZoMk363GAr630aw-42" value="__to_mirror_space__" style="text;strokeColor=none;fillColor=none;align=left;verticalAlign=middle;spacingLeft=4;spacingRight=4;overflow=hidden;points=[[0,0.5],[1,0.5]];portConstraint=eastwest;rotatable=0;whiteSpace=wrap;html=1;" vertex="1" parent="Ym5cuZoMk363GAr630aw-36">
          <mxGeometry y="120" width="140" height="30" as="geometry" />
        </mxCell>
        <mxCell id="Ym5cuZoMk363GAr630aw-40" value="__from_mirror_space__" style="text;strokeColor=none;fillColor=none;align=left;verticalAlign=middle;spacingLeft=4;spacingRight=4;overflow=hidden;points=[[0,0.5],[1,0.5]];portConstraint=eastwest;rotatable=0;whiteSpace=wrap;html=1;" vertex="1" parent="Ym5cuZoMk363GAr630aw-36">
          <mxGeometry y="150" width="140" height="30" as="geometry" />
        </mxCell>
        <mxCell id="Ym5cuZoMk363GAr630aw-43" value="__aggregate__" style="text;strokeColor=none;fillColor=none;align=left;verticalAlign=middle;spacingLeft=4;spacingRight=4;overflow=hidden;points=[[0,0.5],[1,0.5]];portConstraint=eastwest;rotatable=0;whiteSpace=wrap;html=1;" vertex="1" parent="Ym5cuZoMk363GAr630aw-36">
          <mxGeometry y="180" width="140" height="30" as="geometry" />
        </mxCell>
        <mxCell id="Ym5cuZoMk363GAr630aw-44" value="__broadcast_params__" style="text;strokeColor=none;fillColor=none;align=left;verticalAlign=middle;spacingLeft=4;spacingRight=4;overflow=hidden;points=[[0,0.5],[1,0.5]];portConstraint=eastwest;rotatable=0;whiteSpace=wrap;html=1;" vertex="1" parent="Ym5cuZoMk363GAr630aw-36">
          <mxGeometry y="210" width="140" height="30" as="geometry" />
        </mxCell>
        <mxCell id="Ym5cuZoMk363GAr630aw-45" value="__compute_gobal_loss__" style="text;strokeColor=none;fillColor=none;align=left;verticalAlign=middle;spacingLeft=4;spacingRight=4;overflow=hidden;points=[[0,0.5],[1,0.5]];portConstraint=eastwest;rotatable=0;whiteSpace=wrap;html=1;" vertex="1" parent="Ym5cuZoMk363GAr630aw-36">
          <mxGeometry y="240" width="140" height="30" as="geometry" />
        </mxCell>
        <mxCell id="Ym5cuZoMk363GAr630aw-46" value="__hyper_network_fn_" style="text;strokeColor=none;fillColor=none;align=left;verticalAlign=middle;spacingLeft=4;spacingRight=4;overflow=hidden;points=[[0,0.5],[1,0.5]];portConstraint=eastwest;rotatable=0;whiteSpace=wrap;html=1;" vertex="1" parent="Ym5cuZoMk363GAr630aw-36">
          <mxGeometry y="270" width="140" height="30" as="geometry" />
        </mxCell>
        <mxCell id="Ym5cuZoMk363GAr630aw-47" value="train" style="text;strokeColor=none;fillColor=none;align=center;verticalAlign=middle;spacingLeft=4;spacingRight=4;overflow=hidden;points=[[0,0.5],[1,0.5]];portConstraint=eastwest;rotatable=0;whiteSpace=wrap;html=1;" vertex="1" parent="Ym5cuZoMk363GAr630aw-36">
          <mxGeometry y="300" width="140" height="30" as="geometry" />
        </mxCell>
        <mxCell id="Ym5cuZoMk363GAr630aw-49" style="edgeStyle=orthogonalEdgeStyle;curved=1;rounded=0;orthogonalLoop=1;jettySize=auto;html=1;exitX=1;exitY=0.5;exitDx=0;exitDy=0;entryX=0;entryY=0.5;entryDx=0;entryDy=0;" edge="1" parent="1" source="Ym5cuZoMk363GAr630aw-6" target="Ym5cuZoMk363GAr630aw-20">
          <mxGeometry relative="1" as="geometry" />
        </mxCell>
        <mxCell id="Ym5cuZoMk363GAr630aw-50" style="edgeStyle=orthogonalEdgeStyle;curved=1;rounded=0;orthogonalLoop=1;jettySize=auto;html=1;exitX=1;exitY=0.5;exitDx=0;exitDy=0;entryX=0;entryY=0.171;entryDx=0;entryDy=0;entryPerimeter=0;" edge="1" parent="1" source="Ym5cuZoMk363GAr630aw-20" target="Ym5cuZoMk363GAr630aw-23">
          <mxGeometry relative="1" as="geometry">
            <mxPoint x="631" y="346" as="targetPoint" />
          </mxGeometry>
        </mxCell>
        <mxCell id="Ym5cuZoMk363GAr630aw-52" style="edgeStyle=orthogonalEdgeStyle;curved=1;rounded=0;orthogonalLoop=1;jettySize=auto;html=1;exitX=0;exitY=0.5;exitDx=0;exitDy=0;entryX=1.001;entryY=0.06;entryDx=0;entryDy=0;entryPerimeter=0;" edge="1" parent="1" source="Ym5cuZoMk363GAr630aw-6" target="Ym5cuZoMk363GAr630aw-36">
          <mxGeometry relative="1" as="geometry">
            <mxPoint x="138.57147652762296" y="336.1428745814733" as="targetPoint" />
          </mxGeometry>
        </mxCell>
        <mxCell id="Ym5cuZoMk363GAr630aw-54" value="" style="rounded=1;whiteSpace=wrap;html=1;fillColor=none;strokeColor=none;" vertex="1" parent="1">
          <mxGeometry x="17" y="19" width="815" height="515" as="geometry" />
        </mxCell>
      </root>
    </mxGraphModel>
  </diagram>
</mxfile>
